# xmcd
#
# Track frame offsets: 
#        150
#        22217
#        36356
#        52212
#        63041
#        78470
#        90611
#        105058
#        115764
#        127136
#        141741
#        155440
#        168309
#        179676
#        193480
#        217132
#        230435
#        245295
#        267287
#        290421
#        305534
#        321520
#        331407
#
# Disc length: 4634 seconds
#
# Revision: 0
# Processed by: cddbd v1.5.2PL0 Copyright (c) Steve Scherf et al.
# Submitted via: ExactAudioCopy v0.95b4
#
DISCID=65121817
DTITLE=Various Artist - Pay Me My Money Down - The Bluesgrass Album
DYEAR=2007
DGENRE=Bluegrass
TTITLE0=Jonas Fjeld Chatham County Line - Pay Me My Money Down
TTITLE1=The Soggy Bottom Boys Feat. Dan Tyminiski - I Am A Man Of Cons
TTITLE1=tant Sorrow
TTITLE2=Odd Nordstoga - Heim Te Mor
TTITLE3=Dolly Parton - My Blue Tears
TTITLE4=Hemisfair - Helluva Heartache
TTITLE5=Bill Monroe and His Bluegrass Boys - Uncle Pen
TTITLE6=Ila Auto - Saro Jane
TTITLE7=Alison Krauss and Union Station - Love You In Vain
TTITLE8=Ivar Medaas - Sett Deg I Armkroken Min
TTITLE9=Gillian Welch - Red Clay Halo
TTITLE10=The International Tussler Society - Waiting For The One
TTITLE11=Oystein Sunde - Kulingbarsel
TTITLE12=Sixteen Horsepower - Single Girl
TTITLE13=Roy Lonhoiden - Hvor Er Du
TTITLE14=Nickel Creek - Out Of The Woods
TTITLE15=HGH - Country Chris
TTITLE16=Uncle Earl - Drinker Born
TTITLE17=Jonas Fjeld and Chatham County Line - When Morning Comes To Ame
TTITLE17=rica
TTITLE18=Bela Fleck - Valley Of The Rogue
TTITLE19=The Holstein United Bluegrass Boys - The Brightest Morning
TTITLE20=The Greencards - Lonesome Side Of Town
TTITLE21=Olav Larsen and The Alabama Rodeo Stars - Aint Got Time
TTITLE22=New Lost City Ramblers - The Battleship Of Maine
EXTD=
EXTT0=
EXTT1=
EXTT2=
EXTT3=
EXTT4=
EXTT5=
EXTT6=
EXTT7=
EXTT8=
EXTT9=
EXTT10=
EXTT11=
EXTT12=
EXTT13=
EXTT14=
EXTT15=
EXTT16=
EXTT17=
EXTT18=
EXTT19=
EXTT20=
EXTT21=
EXTT22=
PLAYORDER=
